<svg width="12" height="11" viewBox="0 0 12 11" fill="none" xmlns="http://www.w3.org/2000/svg">
<path d="M6.00008 9.42577C5.34908 8.78177 4.14917 7.60227 3.71517 7.16827L3.53025 6.98335C2.99825 6.45018 2.54442 5.98468 2.16817 5.58743C1.07909 4.43535 1.06334 2.74602 2.07484 1.68202C3.04784 0.657685 4.60709 0.662352 5.57484 1.69193L6.00008 2.14402L6.42533 1.69193C7.39308 0.662352 8.95175 0.657685 9.92533 1.68202C10.9368 2.74602 10.9211 4.43535 9.832 5.58743C9.45633 5.98468 9.00133 6.4496 8.46992 6.98335L8.28558 7.16768C7.85508 7.5976 6.65225 8.7806 6.00008 9.42577Z" stroke="#222222" stroke-width="1.16667"/>
</svg>
