<svg width="18" height="18" viewBox="0 0 18 18" fill="none" xmlns="http://www.w3.org/2000/svg">
    <path
        d="M16.9499 15.2L13.3499 11.5V11.4C14.2499 10.2 14.8499 8.69998 14.8499 7.09998C14.8499 3.19998 11.7499 0.0999756 7.84985 0.0999756C3.94985 0.0999756 0.849854 3.19998 0.849854 7.09998C0.849854 11 3.94985 14.1 7.84985 14.1C9.34985 14.1 10.7499 13.6 11.9499 12.8L12.0499 12.9L15.6499 16.6L16.3499 17.3L17.7499 15.9L16.9499 15.2ZM2.84985 7.09998C2.84985 4.29998 5.04985 2.09998 7.84985 2.09998C10.6499 2.09998 12.8499 4.29998 12.8499 7.09998C12.8499 9.89998 10.6499 12.1 7.84985 12.1C5.04985 12.1 2.84985 9.79998 2.84985 7.09998Z"
        fill="#808080" />
</svg>